<?xml version="1.0" encoding="UTF-8" standalone="no"?><!DOCTYPE svg PUBLIC "-//W3C//DTD SVG 1.1//EN" "http://www.w3.org/Graphics/SVG/1.1/DTD/svg11.dtd"><svg width="100%" height="100%" viewBox="0 0 448 446" version="1.1" xmlns="http://www.w3.org/2000/svg" xmlns:xlink="http://www.w3.org/1999/xlink" xml:space="preserve" xmlns:serif="http://www.serif.com/" style="fill-rule:evenodd;clip-rule:evenodd;stroke-linecap:round;stroke-linejoin:round;stroke-miterlimit:1.5;"><rect x="-0" y="0" width="447.264" height="445.277" style="fill:#202020;"/><g><path d="M275.195,254.116l29.14,-49.24l30.722,49.722l-59.862,-0.482Z" style="fill:none;stroke:#fff;stroke-width:4px;"/><path d="M303.394,301.746l31.663,-47.148l-31.663,47.148Z" style="fill:none;stroke:#fff;stroke-width:4px;"/><path d="M275.394,253.866l28,47.88l31.763,-47.162l13.6,39.461l-45.363,7.701l-42.665,-8.569l14.665,-39.311Z" style="fill:none;stroke:#fff;stroke-width:4px;"/><path d="M260.729,293.177l43.194,19.524l-0.12,-10.958l0.12,10.958l45.217,-18.871l26.385,-44.778l-40.228,5.016l15.056,-48.964l25.172,43.948l-25.172,-43.948l-45.75,-0.299l-45.984,0.44l16.875,49.027l-42.202,-6.006l27.437,44.911Z" style="fill:none;stroke:#fff;stroke-width:4px;"/><path d="M233.292,248.266l25.327,-43.021l-18.124,7.543l-7.203,35.478Z" style="fill:none;stroke:#fff;stroke-width:4px;"/><path d="M350.769,205.583l17.597,7.145l7.404,35.95" style="fill:none;stroke:#fff;stroke-width:4px;"/><path d="M240.31,212.55l26.567,-34.561l-7.498,27.404l7.498,-27.404l37.306,0.233l-44.804,27.171l44.804,-27.171l0.401,26.809l-0.401,-26.809l46.864,27.146l-8.558,-26.957l-38.306,-0.189l38.306,0.189l25.965,34.29" style="fill:none;stroke:#fff;stroke-width:4px;"/></g><g id="shegella"><path id="base" d="M303.858,393.717c-0.432,3.543 -1.935,6.87 -4.308,9.536c-1.472,1.628 -3.702,4.031 -6.132,6.359c-1.344,1.263 -2.817,2.38 -4.396,3.333c-0.459,0.306 -0.989,0.626 -1.559,0.97c-7.321,4.415 -16.066,5.829 -24.405,3.946c-0,-0 -0.001,-0 -0.001,-0c-2.158,-0.488 -4.2,-1.396 -6.007,-2.674c-3.544,-2.504 -9.271,-6.552 -9.271,-6.552c0,0 -8.211,-8.421 -10.019,-10.276c-0.239,-0.245 -0.481,-0.486 -0.727,-0.724c-1.97,-1.902 -11.033,-10.594 -12.281,-10.647c-0,-0 -3.83,-1.2 -7.115,-2.23c-3.073,-0.963 -6.25,-1.559 -9.464,-1.775c-4.928,-0.331 -12.143,-0.816 -14.296,-0.961c-0.429,-0.029 -0.858,-0.067 -1.286,-0.115c-3.187,-0.367 -16.929,-2.05 -18.701,-4.008c-0,-0 -3.777,-3.306 -6.743,-5.901c-2.358,-2.064 -4.091,-4.746 -5.002,-7.743c-0.679,-2.237 -1.396,-4.79 -1.688,-6.492c-0.082,-0.72 -0.075,-1.447 0.021,-2.165c0.332,-2.782 1.703,-12.036 3.436,-15.046c0.133,-0.2 0.281,-0.389 0.444,-0.566c0.918,-1.041 6.242,-6.849 6.242,-6.849l7.954,-5.153l8.658,-3.552c0,-0 10.866,-3.458 13.655,-3.338l12.823,0.55l19.14,3.485c2.307,0.42 4.55,1.132 6.677,2.12c3.938,1.605 9.273,3.518 9.273,3.518c0.46,0.155 14.727,9.369 18.118,11.561c0.478,0.309 0.95,0.628 1.414,0.958c2.207,1.563 9.127,6.465 13.042,9.238c1.843,1.306 3.552,2.792 5.1,4.436c1.503,1.596 3.496,3.713 5.246,5.571c2.73,2.898 4.928,6.255 6.495,9.915c1.783,4.179 4.046,9.796 5.127,13.773c0.67,2.464 0.842,5.012 0.536,7.498Z" style="fill:none;fill-rule:nonzero;stroke:#fff;stroke-width:4px;stroke-linecap:butt;stroke-linejoin:miter;stroke-miterlimit:10;"/><g id="flagella"><path d="M161.891,358.445l-14.963,2.464c0,0 -6.861,-0.89 -10.951,-1.421c-1.965,-0.255 -3.861,-0.892 -5.581,-1.875c-1.379,-0.788 -3.109,-1.776 -4.685,-2.676c-2.868,-1.639 -5.391,-3.82 -7.428,-6.421c-2.024,-2.584 -4.299,-5.489 -4.299,-5.489l-6.016,-11.409c-1.842,-3.491 -3.02,-7.293 -3.476,-11.213l-1.116,-9.381l-0.395,-9.814c-0.514,-4.415 0.985,-11.051 2.323,-15.289c-0,0 3.079,-7.678 3.393,-8.461c0.017,-0.043 0.031,-0.087 0.041,-0.132c0.225,-1.012 2.907,-13.088 3.093,-15.088l1.233,-15.159l-2.255,-17.161l-1.87,-16.374l0.124,-17.485c-0.257,-1.709 2.314,-16.475 3.586,-19.965c0.129,-0.269 0.273,-0.531 0.432,-0.784c0.952,-1.582 6.137,-9.752 7.95,-11.187c0.006,-0.004 0.011,-0.009 0.016,-0.013c0.007,-0.006 7.517,-6.126 11.618,-9.47c1.72,-1.401 3.679,-2.479 5.784,-3.181c2.579,-0.86 6.165,-2.055 8.561,-2.854c1.702,-0.567 3.462,-0.943 5.248,-1.122c3.019,-0.301 7.825,-0.78 10.33,-1.03c1.092,-0.109 2.19,-0.156 3.287,-0.143c4.401,0.055 16.096,0.199 16.096,0.199l16.548,-0.212l8.215,-1.247c5.2,-0.787 10.009,-3.226 13.721,-6.954c3.032,-3.046 5.543,-6.572 7.433,-10.432l6.16,-9.152c0.267,-0.545 4.341,-8.296 6.75,-12.877c1.173,-2.249 2.108,-4.614 2.79,-7.056c0.43,-1.536 0.93,-3.325 1.375,-4.92c0.803,-2.875 1.078,-5.872 0.812,-8.844c-0.48,-5.35 -1.223,-13.631 -1.27,-14.156c-0.001,-0.017 -0.001,-0.035 0.001,-0.052c0.083,-0.632 1.631,-12.552 2.221,-17.088c0.149,-1.15 0.447,-2.275 0.886,-3.348c0.113,-0.277 0.236,-0.578 0.366,-0.895c1.655,-4.046 4.406,-7.551 7.943,-10.121c0,0 0,-0 0,-0c1.98,-1.438 4.297,-2.343 6.727,-2.626c1.325,-0.154 2.496,-0.29 2.496,-0.29l23.263,1.004c0,0 0,0 0.001,0c5.721,-0.666 10.604,-4.446 12.682,-9.818c1.377,-3.562 2.652,-6.858 2.652,-6.858c0,-0 0.049,0.59 0.127,1.538c0.65,7.872 -4.497,15.057 -12.161,16.974c-0.063,0.016 -0.12,0.03 -0.172,0.043c-0.218,0.055 -0.443,0.08 -0.667,0.076c-2.192,-0.045 -14.27,-0.293 -14.27,-0.293l-11.474,0.304c-0,0 -0.042,-0 -0.119,-0.002c-3.171,-0.057 -6.233,1.16 -8.499,3.38c-0.185,0.181 -0.369,0.362 -0.549,0.537c-1.491,1.461 -2.714,3.172 -3.614,5.055c-0.397,0.832 -0.831,1.74 -1.227,2.569c-0.887,1.858 -1.442,3.857 -1.638,5.907c-0.434,4.537 -1.205,12.586 -1.325,13.841c-0.01,0.11 -0.008,0.222 0.007,0.332c0.153,1.121 1.03,7.56 1.03,7.56c0,-0 0.218,3.6 0.395,6.526c0.148,2.444 -0.095,4.895 -0.721,7.262c-0.59,2.231 -1.239,4.681 -1.239,4.681l-4.042,11.902l-9.124,17.351l-10.331,14.348c-4.631,4.802 -10.71,7.953 -17.304,8.971l-22.357,1.362l-14.922,-0.548l-11.308,1.029l-18.047,4.634c-2.842,0.689 -16.711,13.591 -16.711,13.591c-7.525,7.69 -8.267,17.903 -8.15,18.622l-0.943,19.231l1.894,20.602c0.887,5.584 2.941,21.373 1.553,26.853l-3.008,19.398l-5.395,16.183c-1.05,3.148 -1.426,6.484 -1.104,9.79l1.697,17.45l3.751,12.403c0.75,2.481 1.887,4.828 3.367,6.955l5.063,7.27c2.608,3.744 6.386,6.519 10.74,7.888c-0,-0 11.288,3.488 14.665,2.363l11.777,-3.77l2.916,-2.577l-0.413,10.285Z" style="fill:#fff;fill-rule:nonzero;"/><path d="M161.891,358.445l-14.963,2.464c0,0 -6.861,-0.89 -10.951,-1.421c-1.965,-0.255 -3.861,-0.892 -5.581,-1.875c-1.379,-0.788 -3.109,-1.776 -4.685,-2.676c-2.868,-1.639 -5.391,-3.82 -7.428,-6.421c-2.024,-2.584 -4.299,-5.489 -4.299,-5.489l-6.016,-11.409c-1.842,-3.491 -3.02,-7.293 -3.476,-11.213l-1.116,-9.381l-0.395,-9.814c-0.514,-4.415 0.985,-11.051 2.323,-15.289c-0,0 3.079,-7.678 3.393,-8.461c0.017,-0.043 0.031,-0.087 0.041,-0.132c0.225,-1.012 2.907,-13.088 3.093,-15.088l1.233,-15.159l-2.255,-17.161l-1.87,-16.374l0.124,-17.485c-0.257,-1.709 2.314,-16.475 3.586,-19.965c0.129,-0.269 0.273,-0.531 0.432,-0.784c0.952,-1.582 6.137,-9.752 7.95,-11.187c0.006,-0.004 0.011,-0.009 0.016,-0.013c0.007,-0.006 7.517,-6.126 11.618,-9.47c1.72,-1.401 3.679,-2.479 5.784,-3.181c2.579,-0.86 6.165,-2.055 8.561,-2.854c1.702,-0.567 3.462,-0.943 5.248,-1.122c3.019,-0.301 7.825,-0.78 10.33,-1.03c1.092,-0.109 2.19,-0.156 3.287,-0.143c4.401,0.055 16.096,0.199 16.096,0.199l16.548,-0.212l8.215,-1.247c5.2,-0.787 10.009,-3.226 13.721,-6.954c3.032,-3.046 5.543,-6.572 7.433,-10.432l6.16,-9.152c0.267,-0.545 4.341,-8.296 6.75,-12.877c1.173,-2.249 2.108,-4.614 2.79,-7.056c0.43,-1.536 0.93,-3.325 1.375,-4.92c0.803,-2.875 1.078,-5.872 0.812,-8.844c-0.48,-5.35 -1.223,-13.631 -1.27,-14.156c-0.001,-0.017 -0.001,-0.035 0.001,-0.052c0.083,-0.632 1.631,-12.552 2.221,-17.088c0.149,-1.15 0.447,-2.275 0.886,-3.348c0.113,-0.277 0.236,-0.578 0.366,-0.895c1.655,-4.046 4.406,-7.551 7.943,-10.121c0,0 0,-0 0,-0c1.98,-1.438 4.297,-2.343 6.727,-2.626c1.325,-0.154 2.496,-0.29 2.496,-0.29l23.263,1.004c0,0 0,0 0.001,0c5.721,-0.666 10.604,-4.446 12.682,-9.818c1.377,-3.562 2.652,-6.858 2.652,-6.858c0,-0 0.049,0.59 0.127,1.538c0.65,7.872 -4.497,15.057 -12.161,16.974c-0.063,0.016 -0.12,0.03 -0.172,0.043c-0.218,0.055 -0.443,0.08 -0.667,0.076c-2.192,-0.045 -14.27,-0.293 -14.27,-0.293l-11.474,0.304c-0,0 -0.042,-0 -0.119,-0.002c-3.171,-0.057 -6.233,1.16 -8.499,3.38c-0.185,0.181 -0.369,0.362 -0.549,0.537c-1.491,1.461 -2.714,3.172 -3.614,5.055c-0.397,0.832 -0.831,1.74 -1.227,2.569c-0.887,1.858 -1.442,3.857 -1.638,5.907c-0.434,4.537 -1.205,12.586 -1.325,13.841c-0.01,0.11 -0.008,0.222 0.007,0.332c0.153,1.121 1.03,7.56 1.03,7.56c0,-0 0.218,3.6 0.395,6.526c0.148,2.444 -0.095,4.895 -0.721,7.262c-0.59,2.231 -1.239,4.681 -1.239,4.681l-4.042,11.902l-9.124,17.351l-10.331,14.348c-4.631,4.802 -10.71,7.953 -17.304,8.971l-22.357,1.362l-14.922,-0.548l-11.308,1.029l-18.047,4.634c-2.842,0.689 -16.711,13.591 -16.711,13.591c-7.525,7.69 -8.267,17.903 -8.15,18.622l-0.943,19.231l1.894,20.602c0.887,5.584 2.941,21.373 1.553,26.853l-3.008,19.398l-5.395,16.183c-1.05,3.148 -1.426,6.484 -1.104,9.79l1.697,17.45l3.751,12.403c0.75,2.481 1.887,4.828 3.367,6.955l5.063,7.27c2.608,3.744 6.386,6.519 10.74,7.888c-0,-0 11.288,3.488 14.665,2.363l11.777,-3.77l2.916,-2.577l-0.413,10.285Zm122.218,-320.384l-7.512,-0.154c-0.024,0 -11.498,0.305 -11.498,0.305l0,0.001c-0.023,-0.002 -0.048,-0.003 -0.074,-0.004c-3.439,-0.062 -6.759,1.258 -9.217,3.665c-0.185,0.182 -0.369,0.362 -0.549,0.538c-1.574,1.542 -2.866,3.349 -3.816,5.338c-0.397,0.832 -0.831,1.74 -1.227,2.569c-0.938,1.963 -1.524,4.076 -1.732,6.243l-1.324,13.84c-0.018,0.188 -0.014,0.376 0.011,0.563c0,-0 1.025,7.523 1.025,7.523c0,-0 0.393,6.488 0.393,6.488c0.142,2.338 -0.091,4.683 -0.69,6.947c-0,-0 -1.23,4.647 -1.23,4.647c0,0 -4.006,11.795 -4.006,11.795c0,0 -9.054,17.219 -9.054,17.219c-0,0 -10.248,14.233 -10.248,14.233c-4.462,4.604 -10.304,7.629 -16.639,8.618c-0.004,0.001 -22.265,1.357 -22.265,1.357c-0,-0 -14.937,-0.549 -14.937,-0.549l-11.451,1.042l-18.122,4.653c-0.919,0.229 -2.925,1.58 -5.242,3.428c-5.076,4.049 -11.905,10.401 -11.905,10.401l-0.017,0.016c-5.462,5.581 -7.476,12.42 -8.15,16.28c-0.264,1.511 -0.316,2.6 -0.302,3.043c-0,-0.003 -0.945,19.267 -0.945,19.267l1.903,20.705l0.005,0.033c0.874,5.5 2.939,21.052 1.571,26.45l-0.019,0.093l-2.994,19.315c0,-0 -5.369,16.103 -5.369,16.103c-1.094,3.281 -1.486,6.757 -1.151,10.203l1.707,17.548l3.779,12.498c0.781,2.581 1.964,5.023 3.505,7.236l5.063,7.27c2.734,3.926 6.695,6.836 11.26,8.271l0.002,0.001c0.002,0 5.619,1.734 10.165,2.384c2.102,0.3 3.992,0.343 5.106,-0.025c-0,0 11.974,-3.832 11.974,-3.832l1.318,-1.165l-0.286,7.13l-14.014,2.308c-0,-0 -10.806,-1.403 -10.806,-1.403c-1.835,-0.238 -3.606,-0.833 -5.213,-1.751c-1.379,-0.788 -3.109,-1.776 -4.685,-2.677c-2.756,-1.574 -5.18,-3.669 -7.137,-6.169c0,0 -4.243,-5.418 -4.243,-5.418c-0,0 -5.974,-11.329 -5.974,-11.329c-1.784,-3.382 -2.926,-7.066 -3.368,-10.863l-1.111,-9.345c-0,0 -0.396,-9.812 -0.396,-9.812l-0.004,-0.037c-0.499,-4.283 0.973,-10.711 2.271,-14.836c0.001,-0.001 3.38,-8.427 3.38,-8.427c0.037,-0.093 0.067,-0.189 0.089,-0.286l-0,-0.001c0.227,-1.02 2.925,-13.196 3.112,-15.212l0.001,-0.006c0,-0.005 1.243,-15.271 1.243,-15.271l-2.268,-17.257c0,-0 -1.862,-16.306 -1.862,-16.306c-0,-0 0.123,-17.503 0.123,-17.503l-0.011,-0.077c-0.072,-0.479 0.122,-2.054 0.421,-4.115c0.734,-5.046 2.217,-12.842 3.098,-15.31c0.109,-0.224 0.227,-0.438 0.357,-0.645l0.005,-0.008c0.932,-1.548 5.953,-9.528 7.719,-10.926c0.007,-0.006 0.017,-0.014 0.028,-0.022c-0.012,0.009 7.509,-6.121 11.617,-9.469c1.626,-1.326 3.479,-2.345 5.468,-3.008c2.579,-0.86 6.165,-2.055 8.561,-2.854c1.632,-0.544 3.319,-0.905 5.031,-1.075c3.019,-0.302 7.825,-0.781 10.33,-1.031c1.055,-0.105 2.116,-0.151 3.176,-0.138l16.108,0.199c0.013,0 16.63,-0.213 16.63,-0.213l8.283,-1.257c5.411,-0.819 10.417,-3.358 14.28,-7.237l-0,-0c3.093,-3.109 5.658,-6.704 7.593,-10.639c-0.001,0.003 6.159,-9.149 6.159,-9.149l0.03,-0.062c0.267,-0.545 4.332,-8.28 6.737,-12.852l0,-0.001c1.206,-2.312 2.167,-4.742 2.868,-7.251c0.43,-1.535 0.93,-3.325 1.375,-4.92c0.836,-2.991 1.122,-6.109 0.845,-9.203l-1.262,-14.072l2.209,-17.005c0.139,-1.064 0.414,-2.106 0.821,-3.099c0.113,-0.276 0.236,-0.577 0.366,-0.894c1.585,-3.874 4.218,-7.23 7.605,-9.691c-0,0 -0,-0 -0,-0c1.841,-1.337 3.995,-2.178 6.255,-2.441c-0,-0 2.416,-0.282 2.416,-0.282l18.928,0.818Zm18.593,-12.027c-1.006,5.775 -5.322,10.598 -11.235,12.077c-0.063,0.016 -0.121,0.03 -0.173,0.043c-0.132,0.033 -0.268,0.049 -0.404,0.046l-1.8,-0.037c5.845,-0.885 10.79,-4.835 12.933,-10.376l0.679,-1.753Z" style="fill:#fff;"/><path d="M163.623,345.587l-1.678,2.433l-13.155,1.371l-10.793,0.218c-0,-0 -5.555,0.203 -9.403,0.344c-2.385,0.088 -4.769,-0.185 -7.073,-0.81c-1.753,-0.475 -3.955,-1.072 -6.082,-1.648c-5.05,-1.369 -9.617,-4.12 -13.188,-7.944c0,-0 0,-0.001 0,-0.001c-2.514,-2.693 -4.631,-5.732 -6.286,-9.024c-2.36,-4.699 -5.775,-11.493 -7.375,-14.677c-0.842,-1.677 -1.471,-3.453 -1.87,-5.286c-0.727,-3.362 -1.375,-7.795 -1.662,-9.87c-0.108,-0.788 -0.167,-1.581 -0.177,-2.376c-0.031,-3.359 0.019,-12.787 1.498,-16.311c0,-0.002 0.001,-0.004 0.002,-0.006c0.003,-0.007 3.206,-7.953 4.859,-12.054c0.699,-1.734 1.592,-3.384 2.663,-4.917c2.516,-3.673 7.045,-10.292 8.539,-12.238c0.342,-0.385 0.704,-0.752 1.083,-1.101c1.418,-1.319 4.646,-4.293 6.366,-5.878c0.751,-0.692 1.54,-1.341 2.363,-1.946c2.548,-1.869 8.33,-6.112 10.572,-7.758c0.608,-0.446 1.238,-0.862 1.886,-1.247c2.532,-1.501 9.202,-5.455 10.295,-6.103c0.101,-0.061 0.202,-0.122 0.303,-0.184c1.393,-0.861 11.97,-7.395 11.97,-7.395c0,-0 1.823,-1.817 3.577,-3.565c2.076,-2.07 3.451,-4.738 3.932,-7.63c0.883,-5.311 2.243,-13.487 2.243,-13.487c-0.415,1.629 -0.488,6.117 -0.441,10.605c0.058,6.99 -3.718,13.451 -9.838,16.831c-1.253,0.694 -2.325,1.285 -2.984,1.649c-0.466,0.258 -0.922,0.536 -1.365,0.833c-3.255,2.181 -17.534,11.75 -22.017,14.755c-0.9,0.603 -1.746,1.281 -2.53,2.028c-2.381,2.27 -7.884,7.514 -11.924,11.364c-3.156,3.008 -5.762,6.544 -7.702,10.448c-1.974,3.974 -4.219,8.494 -4.222,8.499c-0.017,0.034 -0.035,0.068 -0.053,0.102c-1.798,3.407 -4.886,17.46 -4.823,18.164c-0,0.002 0,0.003 0,0.005c0.001,0.011 1.176,16.106 2.275,18.361c0.005,0.009 0.01,0.019 0.014,0.029c0.004,0.007 4.148,9.04 7.125,15.529c2.283,4.978 5.788,9.297 10.188,12.557c1.713,1.268 3.48,2.451 5.01,3.195c0.841,0.407 1.741,0.676 2.666,0.799c2.133,0.285 7.802,1.039 11.732,1.562c2.695,0.358 5.425,0.36 8.12,0.004c4.016,-0.53 9.719,-1.283 10.828,-1.43c0.13,-0.017 0.26,-0.032 0.391,-0.046c1.249,-0.138 8.012,-0.899 10.432,-1.581c0.161,-0.058 0.324,-0.108 0.49,-0.15c0.004,-0.011 10.226,-2.589 10.226,-2.589l-5.007,7.567Z" style="fill:#fff;fill-rule:nonzero;"/><path d="M156.835,197.681c-0.241,2.11 -0.282,5.766 -0.244,9.421c0.058,6.99 -3.718,13.451 -9.838,16.831c-1.253,0.694 -2.325,1.285 -2.984,1.649c-0.466,0.258 -0.922,0.536 -1.365,0.833c-3.255,2.181 -17.534,11.75 -22.017,14.755c-0.9,0.603 -1.746,1.281 -2.53,2.028c-2.381,2.27 -7.884,7.514 -11.924,11.364c-3.156,3.008 -5.762,6.544 -7.702,10.448c-1.974,3.974 -4.219,8.494 -4.222,8.499c-0.017,0.034 -0.035,0.068 -0.053,0.102c-1.798,3.407 -4.886,17.46 -4.823,18.164c-0,0.002 0,0.003 0,0.005c0.001,0.011 1.176,16.106 2.275,18.361c0.005,0.009 0.01,0.019 0.014,0.029c0.004,0.007 4.148,9.04 7.125,15.529c2.283,4.978 5.788,9.297 10.188,12.557c1.713,1.268 3.48,2.451 5.01,3.195c0.841,0.407 1.741,0.676 2.666,0.799c2.133,0.285 7.802,1.039 11.732,1.562c2.695,0.358 5.425,0.36 8.12,0.004c4.016,-0.53 9.719,-1.283 10.828,-1.43c0.13,-0.017 0.26,-0.032 0.391,-0.046c1.249,-0.138 8.012,-0.899 10.432,-1.581c0.161,-0.058 0.324,-0.108 0.49,-0.15c0.004,-0.011 10.226,-2.589 10.226,-2.589l-5.007,7.567l-1.678,2.433l-13.155,1.371l-10.793,0.218c-0,-0 -5.555,0.203 -9.403,0.344c-2.385,0.088 -4.769,-0.185 -7.073,-0.81c-1.753,-0.475 -3.955,-1.072 -6.082,-1.648c-5.05,-1.369 -9.617,-4.12 -13.188,-7.944c0,-0 0,-0.001 0,-0.001c-2.514,-2.693 -4.631,-5.732 -6.286,-9.024c-2.36,-4.699 -5.775,-11.493 -7.375,-14.677c-0.842,-1.677 -1.471,-3.453 -1.87,-5.286c-0.727,-3.362 -1.375,-7.795 -1.662,-9.87c-0.108,-0.788 -0.167,-1.581 -0.177,-2.376c-0.031,-3.359 0.019,-12.787 1.498,-16.311c0,-0.002 0.001,-0.004 0.002,-0.006c0.003,-0.007 3.206,-7.953 4.859,-12.054c0.699,-1.734 1.592,-3.384 2.663,-4.917c2.516,-3.673 7.045,-10.292 8.539,-12.238c0.342,-0.385 0.704,-0.752 1.083,-1.101c1.418,-1.319 4.646,-4.293 6.366,-5.878c0.751,-0.692 1.54,-1.341 2.363,-1.946c2.548,-1.869 8.33,-6.112 10.572,-7.758c0.608,-0.446 1.238,-0.862 1.886,-1.247c2.532,-1.501 9.202,-5.455 10.295,-6.103c0.101,-0.061 0.202,-0.122 0.303,-0.184c1.393,-0.861 11.97,-7.395 11.97,-7.395c0,-0 1.823,-1.817 3.577,-3.565c2.076,-2.07 3.451,-4.738 3.932,-7.63l2.046,-12.303c0.055,-0.481 0.12,-0.882 0.197,-1.184l-0.197,1.184Zm-54.39,138.287c0.522,0.644 1.067,1.269 1.633,1.876c0,0 0.001,0 0.001,0c3.253,3.484 7.414,5.991 12.014,7.238c2.127,0.576 4.329,1.173 6.082,1.649c2.061,0.558 4.194,0.802 6.327,0.724c3.848,-0.141 9.403,-0.344 9.424,-0.345c-0,-0 10.708,-0.216 10.708,-0.216c0,-0 11.907,-1.242 11.907,-1.242l1.011,-1.465c-0,0 1.431,-2.163 1.432,-2.163l-2.716,0.689l-0.002,0.005l-1.252,0.315c-0.084,0.021 -0.167,0.047 -0.248,0.076l-0.086,0.031l-0.088,0.025c-2.515,0.709 -9.539,1.517 -10.839,1.66l-0.336,0.04c0,0 -10.827,1.429 -10.827,1.429c-2.913,0.385 -5.864,0.383 -8.776,-0.004c-3.931,-0.523 -9.6,-1.277 -11.732,-1.561c-1.189,-0.159 -2.345,-0.505 -3.427,-1.028l-0.003,-0.001c-1.648,-0.802 -3.558,-2.068 -5.404,-3.434l-0.001,-0.001c-1.736,-1.286 -3.343,-2.725 -4.802,-4.297Z" style="fill:#fff;"/><path d="M167.05,337.134l-13.444,0.138c-0,-0 -11.54,-3.132 -15.554,-5.416c-0.29,-0.185 -0.569,-0.386 -0.837,-0.602c-1.073,-0.817 -8.348,-6.68 -8.348,-6.68l-6.427,-8.835l-3.569,-9.692c-1.323,-2.498 -1.998,-4.673 -2.443,-7.019c-0.541,-2.871 -0.637,-5.807 -0.284,-8.707c0.685,-5.741 2.085,-16.717 2.862,-19.428l3.753,-13.422l4.708,-14.6l2.168,-10.824l1.937,-11.678l2.699,-9.703l3.045,-10.24c0.61,-1.681 4.856,-11.418 4.856,-11.418c-0,0 3.727,-8.593 5.535,-12.762c0.706,-1.628 1.527,-3.204 2.457,-4.716c1.913,-3.106 5.239,-8.214 7.464,-9.983c0,0 0.707,-0.401 1.689,-0.959c3.833,-2.176 8.215,-3.192 12.615,-2.922c-0,-0 -0,-0 0,-0c3.334,0.204 6.596,1.057 9.602,2.512c3.185,1.541 7.143,3.457 8.74,4.229c0.477,0.231 0.947,0.479 1.408,0.742c2.638,1.506 11.923,6.808 11.923,6.808c0,0 2.062,0.959 4.229,1.966c3.193,1.484 6.785,1.883 10.226,1.136c1.312,-0.285 2.588,-0.562 3.454,-0.75c0.733,-0.159 1.457,-0.354 2.171,-0.584c1.165,-0.375 3.129,-1.008 5.132,-1.654c4.413,-1.422 8.176,-4.365 10.619,-8.305c0.573,-0.924 1.169,-1.887 1.758,-2.835c2.985,-4.815 4.258,-10.496 3.613,-16.124c-0.044,-0.382 -0.083,-0.729 -0.117,-1.025c-0.083,-0.726 -0.196,-1.449 -0.337,-2.166c-0.611,-3.078 -2.392,-11.928 -3.519,-16.199c-0.26,-0.68 -0.465,-1.379 -0.613,-2.091c-0.036,-0.006 -5.207,-24.853 -5.207,-24.853c0,0 -0.027,-0.086 -0.077,-0.241c-1.551,-4.889 -4.458,-9.238 -8.383,-12.54c-2.655,-2.233 -5.184,-4.362 -5.184,-4.362c-0,0 14.289,7.764 15.03,11.378c0.001,0.002 0.001,0.004 0.001,0.006c0.002,0.009 2.48,13.093 2.48,13.093l2.832,12.533l2.024,10.316c-0,-0 3.795,16.281 3.854,16.533c0,0.002 0.001,0.004 0.002,0.006c0.62,2.043 -0.153,6.578 -0.75,9.424c-0.323,1.535 -0.829,3.026 -1.508,4.44c-0.602,1.252 -1.431,2.979 -2.305,4.798c-2.862,5.957 -8.186,10.365 -14.573,12.064c-2.998,0.797 -5.98,1.591 -7.854,2.089c-1.296,0.345 -2.624,0.559 -3.963,0.64c-0.141,0.009 -0.287,0.018 -0.435,0.026c-3.53,0.214 -7.054,-0.505 -10.219,-2.084c-2.478,-1.237 -5.203,-2.597 -6.309,-3.148c-0.356,-0.178 -0.707,-0.367 -1.052,-0.568c-2.068,-1.199 -9.357,-5.425 -9.959,-5.836c-3.702,-2.529 -6.545,-3.984 -8.532,-4.817c-1.736,-0.71 -3.593,-1.077 -5.468,-1.083c-0.854,-0.024 -1.882,-0.027 -2.879,-0.03c-4.453,-0.016 -8.78,1.48 -12.274,4.242c6.244,-3.863 2.852,-2.167 0.301,-0.226c-1.471,1.117 -2.669,2.554 -3.501,4.203c-2.09,4.135 -7.621,15.094 -7.621,15.094l-6.532,15.304l-4.141,11.054l-2.248,11.756l-1.826,12.151c-0,-0 -3.343,13.679 -3.892,14.927l-3.435,10.5c0,0 -2.991,11.19 -3.208,13.419c0,-0 -0.972,8.325 -1.434,12.28c-0.158,1.358 -0.186,2.727 -0.081,4.09c0.046,0.603 0.099,1.301 0.156,2.04c0.379,4.953 1.709,9.788 3.917,14.238c0.471,0.949 0.907,1.829 1.241,2.502c0.429,0.863 0.897,1.707 1.402,2.527c1.887,3.06 6.639,10.766 6.639,10.766c0,0 1.537,1.291 3.767,2.921c6.015,4.42 13.446,6.469 20.876,5.756c4.011,-0.38 7.998,-0.762 7.998,-0.762l8.714,-0.741l-9.555,7.983Z" style="fill:#fff;fill-rule:nonzero;"/><path d="M159.577,165.312c-1.363,1.088 -2.477,2.458 -3.264,4.017c-2.09,4.135 -7.621,15.094 -7.621,15.094l-6.532,15.304l-4.141,11.054l-2.248,11.756l-1.826,12.151c-0,-0 -3.343,13.679 -3.892,14.927l-3.435,10.5c0,0 -2.991,11.19 -3.208,13.419c0,-0 -0.972,8.325 -1.434,12.28c-0.158,1.358 -0.186,2.727 -0.081,4.09c0.046,0.603 0.099,1.301 0.156,2.04c0.379,4.953 1.709,9.788 3.917,14.238c0.471,0.949 0.907,1.829 1.241,2.502c0.429,0.863 0.897,1.707 1.402,2.527c1.887,3.06 6.639,10.766 6.639,10.766c0,0 1.537,1.291 3.767,2.921c6.015,4.42 13.446,6.469 20.876,5.756c4.011,-0.38 7.998,-0.762 7.998,-0.762l8.714,-0.741l-9.555,7.983l-13.444,0.138c-0,-0 -11.54,-3.132 -15.554,-5.416c-0.29,-0.185 -0.569,-0.386 -0.837,-0.602c-1.073,-0.817 -8.348,-6.68 -8.348,-6.68l-6.427,-8.835l-3.569,-9.692c-1.323,-2.498 -1.998,-4.673 -2.443,-7.019c-0.541,-2.871 -0.637,-5.807 -0.284,-8.707c0.685,-5.741 2.085,-16.717 2.862,-19.428l3.753,-13.422l4.708,-14.6l2.168,-10.824l1.937,-11.678l2.699,-9.703l3.045,-10.24c0.61,-1.681 4.856,-11.418 4.856,-11.418c-0,0 3.727,-8.593 5.535,-12.762c0.706,-1.628 1.527,-3.204 2.457,-4.716c1.913,-3.106 5.239,-8.214 7.464,-9.983c0,0 0.707,-0.401 1.689,-0.959c3.833,-2.176 8.215,-3.192 12.615,-2.922c-0,-0 -0,-0 0,-0c3.334,0.204 6.596,1.057 9.602,2.512c3.185,1.541 7.143,3.457 8.74,4.229c0.477,0.231 0.947,0.479 1.408,0.742c2.638,1.506 11.923,6.808 11.923,6.808c0,0 2.062,0.959 4.229,1.966c3.193,1.484 6.785,1.883 10.226,1.136c1.312,-0.285 2.588,-0.562 3.454,-0.75c0.733,-0.159 1.457,-0.354 2.171,-0.584c1.165,-0.375 3.129,-1.008 5.132,-1.654c4.413,-1.422 8.176,-4.365 10.619,-8.305c0.573,-0.924 1.169,-1.887 1.758,-2.835c2.985,-4.815 4.258,-10.496 3.613,-16.124c-0.044,-0.382 -0.083,-0.729 -0.117,-1.025c-0.083,-0.726 -0.196,-1.449 -0.337,-2.166c-0.611,-3.078 -2.392,-11.928 -3.519,-16.199c-0.26,-0.68 -0.465,-1.379 -0.613,-2.091c-0.036,-0.006 -5.207,-24.853 -5.207,-24.853c0,0 -0.027,-0.086 -0.077,-0.241c-1.551,-4.889 -4.458,-9.238 -8.383,-12.54c-2.655,-2.233 -5.184,-4.362 -5.184,-4.362c-0,0 14.289,7.764 15.03,11.378c0.001,0.002 0.001,0.004 0.001,0.006c0.002,0.009 2.48,13.093 2.48,13.093l2.832,12.533l2.024,10.316c-0,-0 3.795,16.281 3.854,16.533c0,0.002 0.001,0.004 0.002,0.006c0.62,2.043 -0.153,6.578 -0.75,9.424c-0.323,1.535 -0.829,3.026 -1.508,4.44c-0.602,1.252 -1.431,2.979 -2.305,4.798c-2.862,5.957 -8.186,10.365 -14.573,12.064c-2.998,0.797 -5.98,1.591 -7.854,2.089c-1.296,0.345 -2.624,0.559 -3.963,0.64c-0.141,0.009 -0.287,0.018 -0.435,0.026c-3.53,0.214 -7.054,-0.505 -10.219,-2.084c-2.478,-1.237 -5.203,-2.597 -6.309,-3.148c-0.356,-0.178 -0.707,-0.367 -1.052,-0.568c-2.068,-1.199 -9.357,-5.425 -9.959,-5.836c-3.702,-2.529 -6.545,-3.984 -8.532,-4.817c-1.736,-0.71 -3.593,-1.077 -5.468,-1.083c-0.854,-0.024 -1.882,-0.027 -2.879,-0.03c-3.154,-0.011 -6.245,0.736 -9.021,2.155c-0.441,0.313 -1.423,0.953 -3.189,2.047Zm-38.874,109.848c-0.724,4.424 -1.583,11.326 -2.077,15.46l-0,0.003c-0.322,2.645 -0.235,5.323 0.258,7.94c0.401,2.11 1.007,4.067 2.196,6.313l0.079,0.149c0,-0 3.507,9.524 3.507,9.524c-0,0 6.028,8.286 6.028,8.286c1.298,1.046 7.09,5.71 8.063,6.45l0.026,0.022c0.18,0.145 0.367,0.281 0.568,0.412c3.512,1.965 12.704,4.536 14.576,5.049l12.205,-0.125l2.79,-2.33c-0,0 -0.806,0.069 -0.806,0.069c-0.258,0.025 -4.112,0.394 -7.984,0.761c-8.042,0.771 -16.086,-1.447 -22.59,-6.227c-2.309,-1.687 -3.9,-3.024 -3.9,-3.024l-0.308,-0.259l-6.851,-11.11c-0.546,-0.886 -1.051,-1.796 -1.513,-2.728c-0.334,-0.673 -0.77,-1.553 -1.241,-2.502c-2.351,-4.738 -3.767,-9.885 -4.171,-15.158c-0.056,-0.739 -0.11,-1.437 -0.156,-2.04c-0.117,-1.523 -0.086,-3.054 0.091,-4.571l1.21,-10.364Zm42.063,-111.895c0.929,-0.654 -0.528,0.143 -2.096,1.24c-0.395,0.266 -0.781,0.549 -1.157,0.847l0.064,-0.04l0.237,-0.186c0.28,-0.213 0.57,-0.423 0.856,-0.621c0.675,-0.458 1.374,-0.872 2.096,-1.24Z" style="fill:#fff;"/><path d="M164.515,368.449l-13.624,1.431l-16.073,-0.594l-13.677,-2.122l-15.068,-4.247l-12.164,-6.298l-8.597,-7.572l-6.126,-8.43l-4.306,-11.216l-2.984,-6.826l-2.331,-9.275l-0.72,-10.924c0,0 0.841,-8.449 2.036,-11.527l2.59,-6.68l4.353,-9.883l9.105,-14.384c1.351,-2.754 6.419,-9.326 8.432,-11.642c-0,-0 9.151,-14.924 10.723,-17.13l13.465,-17.518l6.047,-11.256c2.237,-4.214 9.866,-11.073 9.866,-11.073c3.882,-2.765 6.292,-4.915 11.028,-5.466l8.926,-0.384l12.739,1.659l18.47,3.801c0.797,0.187 9.746,-0.5 15.353,-0.956c4.469,-0.363 8.66,-2.313 11.815,-5.498c-7.316,5.124 -3.699,3.469 -0.562,0.54c0.977,-0.915 1.814,-1.97 2.483,-3.13c0.475,-0.733 1.114,-1.84 1.834,-3.089c3.537,-6.131 4.906,-13.274 3.888,-20.278c-0.424,-2.915 -0.768,-5.279 -0.768,-5.279c1.799,3.293 3.764,11.9 2.34,16.092c0,-0 -0.825,4.627 -1.359,7.622c-0.331,1.861 -1.108,3.613 -2.264,5.108c-1.551,1.948 -3.437,3.952 -5.475,5.701c-3.428,2.911 -7.676,4.687 -12.156,5.084c-3.415,0.344 -8.164,0.764 -11.481,1.057c-2.595,0.23 -5.209,0.079 -7.759,-0.447c-5.541,-1.142 -15.111,-3.114 -15.111,-3.114l-11.994,-1.042c-2.558,-0.158 -8,0.491 -10.478,1.144l-5.9,3.693c-2.659,1.694 -4.971,3.882 -6.811,6.441l-16.348,24.722l-11.492,16.324l-9.934,15.368l-8.329,13.265c0,0 -7.04,11.828 -7.688,13.592l-3.797,10.326l-0.474,8.2l-0.424,11.061l3.765,10.268l4.348,10.351l4.833,7.213c1.156,1.724 2.516,3.299 4.055,4.692l4.393,3.981l10.341,5.367l9.514,3.179l13.028,3.913l11.705,2.35c-0,0 10.865,-0.896 13.139,-2.099l7.608,-4.03l4.052,9.864Z" style="fill:#fff;fill-rule:nonzero;"/><path d="M213.731,184.483c0.766,-0.793 1.432,-1.678 1.983,-2.634c0.475,-0.733 1.114,-1.84 1.834,-3.089c3.537,-6.131 4.906,-13.274 3.888,-20.278c-0.424,-2.915 -0.768,-5.279 -0.768,-5.279c1.799,3.293 3.764,11.9 2.34,16.092c0,-0 -0.825,4.627 -1.359,7.622c-0.331,1.861 -1.108,3.613 -2.264,5.108c-1.551,1.948 -3.437,3.952 -5.475,5.701c-3.428,2.911 -7.676,4.687 -12.156,5.084c-3.415,0.344 -8.164,0.764 -11.481,1.057c-2.595,0.23 -5.209,0.079 -7.759,-0.447c-5.541,-1.142 -15.111,-3.114 -15.111,-3.114l-11.994,-1.042c-2.558,-0.158 -8,0.491 -10.478,1.144l-5.9,3.693c-2.659,1.694 -4.971,3.882 -6.811,6.441l-16.348,24.722l-11.492,16.324l-9.934,15.368l-8.329,13.265c0,0 -7.04,11.828 -7.688,13.592l-3.797,10.326l-0.474,8.2l-0.424,11.061l3.765,10.268l4.348,10.351l4.833,7.213c1.156,1.724 2.516,3.299 4.055,4.692l4.393,3.981l10.341,5.367l9.514,3.179l13.028,3.913l11.705,2.35c-0,0 10.865,-0.896 13.139,-2.099l7.608,-4.03l4.052,9.864l-13.624,1.431l-16.073,-0.594l-13.677,-2.122l-15.068,-4.247l-12.164,-6.298l-8.597,-7.572l-6.126,-8.43l-4.306,-11.216l-2.984,-6.826l-2.331,-9.275l-0.72,-10.924c0,0 0.841,-8.449 2.036,-11.527l2.59,-6.68l4.353,-9.883l9.105,-14.384c1.351,-2.754 6.419,-9.326 8.432,-11.642c-0,-0 9.151,-14.924 10.723,-17.13l13.465,-17.518l6.047,-11.256c2.237,-4.214 9.866,-11.073 9.866,-11.073c3.882,-2.765 6.292,-4.915 11.028,-5.466l8.926,-0.384l12.739,1.659l18.47,3.801c0.797,0.187 9.746,-0.5 15.353,-0.956c2.69,-0.218 5.278,-1.012 7.599,-2.307c0.275,-0.308 1.467,-1.264 4.154,-3.147Zm0,-0c-0.161,0.17 -0.328,0.336 -0.5,0.496l-0.287,0.259c-1.035,0.925 -2.165,1.726 -3.367,2.392c-0.444,0.495 1.487,-0.691 3.367,-2.392c0.293,-0.255 0.575,-0.522 0.849,-0.799l-0.062,0.044Z" style="fill:#fff;"/></g></g></svg>