<?xml version="1.0" encoding="UTF-8" standalone="no"?><!DOCTYPE svg PUBLIC "-//W3C//DTD SVG 1.1//EN" "http://www.w3.org/Graphics/SVG/1.1/DTD/svg11.dtd"><svg width="100%" height="100%" viewBox="0 0 179 170" version="1.1" xmlns="http://www.w3.org/2000/svg" xmlns:xlink="http://www.w3.org/1999/xlink" xml:space="preserve" xmlns:serif="http://www.serif.com/" style="fill-rule:evenodd;clip-rule:evenodd;stroke-linecap:round;stroke-linejoin:round;stroke-miterlimit:1.5;"><g><path d="M53.542,95.434l35.669,-60.272l37.606,60.863l-73.275,-0.591Z" style="fill:none;stroke:#202020;stroke-width:4.5px;"/><path d="M88.06,153.737l38.757,-57.712l-38.757,57.712Z" style="fill:none;stroke:#202020;stroke-width:4.5px;"/><path d="M53.785,95.129l34.275,58.608l38.88,-57.729l16.646,48.303l-55.526,9.426l-52.226,-10.489l17.951,-48.119Z" style="fill:none;stroke:#202020;stroke-width:4.5px;"/><path d="M35.834,143.248l52.872,23.899l-0.146,-13.414l0.146,13.414l55.35,-23.1l32.297,-54.812l-49.242,6.141l18.429,-59.936l30.813,53.795l-30.813,-53.795l-56.001,-0.366l-56.288,0.539l20.656,60.013l-51.657,-7.352l33.584,54.974Z" style="fill:none;stroke:#202020;stroke-width:4.5px;"/><path d="M2.25,88.274l31.001,-52.661l-22.185,9.234l-8.816,43.427Z" style="fill:none;stroke:#202020;stroke-width:4.5px;"/><path d="M146.049,36.027l21.54,8.746l9.064,44.005" style="fill:none;stroke:#202020;stroke-width:4.5px;"/><path d="M10.84,44.555l32.52,-42.305l-9.178,33.545l9.178,-33.545l45.666,0.285l-54.844,33.26l54.844,-33.26l0.489,32.816l-0.489,-32.816l57.364,33.228l-10.475,-32.997l-46.889,-0.231l46.889,0.231l31.783,41.974" style="fill:none;stroke:#202020;stroke-width:4.5px;"/></g></svg>